<svg width="464" height="331" viewBox="0 0 464 331" fill="none" xmlns="http://www.w3.org/2000/svg">
<path d="M29.8271 125.143H80.2723C95.6433 125.143 108.539 137.603 108.539 152.974L108.104 180.371C108.104 195.742 121 208.638 136.371 208.638C151.742 208.638 164.203 195.742 164.203 180.371V92.9621C164.203 77.591 176.663 66 192.034 66C207.405 66 219.866 78.4607 219.866 93.8318L219.431 236.035C219.431 251.406 232.327 264.302 247.698 264.302C263.069 264.302 275.095 251.406 275.095 236.035L275.53 121.664C275.53 106.293 287.99 93.8318 303.361 93.8318C318.733 93.8318 330.758 106.293 330.758 121.664V152.974C330.758 168.345 342.784 180.371 358.155 180.371H445.999" stroke="#6398FF" stroke-width="35.3103" stroke-linecap="round"/>
<path d="M18 113.125H67.8653C83.0597 113.125 95.8071 125.458 95.8071 140.672L95.3772 199.641C95.3772 214.855 108.125 227.618 123.319 227.618C138.513 227.618 150.831 214.855 150.831 199.641V44.6865C150.831 29.4725 163.148 18 178.343 18C193.537 18 205.855 30.3334 205.855 45.5474L205.425 284.865C205.425 300.079 218.172 312.843 233.367 312.843C248.561 312.843 260.449 300.079 260.449 284.865L260.878 137.229C260.878 122.015 273.196 109.681 288.39 109.681C303.585 109.681 315.472 122.015 315.472 137.229V140.672C315.472 155.886 327.36 167.789 342.554 167.789H429.389" stroke="#0037FF" stroke-width="35.3103" stroke-linecap="round" stroke-linejoin="round"/>
</svg>
